<?xml version="1.0" encoding="UTF-8"?>
<!DOCTYPE svg PUBLIC "-//W3C//DTD SVG 1.1//EN" "http://www.w3.org/Graphics/SVG/1.1/DTD/svg11.dtd">
<!-- Creator: CorelDRAW 2020 (64 Bit) -->
<svg xmlns="http://www.w3.org/2000/svg" xml:space="preserve" width="297mm" height="150mm" version="1.1" style="shape-rendering:geometricPrecision; text-rendering:geometricPrecision; image-rendering:optimizeQuality; fill-rule:evenodd; clip-rule:evenodd"
viewBox="0 0 29700 15000"
 xmlns:xlink="http://www.w3.org/1999/xlink"
 xmlns:xodm="http://www.corel.com/coreldraw/odm/2003">
 <defs>
  <style type="text/css">
   <![CDATA[
    .fil3 {fill:#4B4B4D;fill-rule:nonzero}
    .fil0 {fill:url(#id0)}
    .fil2 {fill:url(#id1)}
    .fil1 {fill:url(#id2)}
   ]]>
  </style>
  <linearGradient id="id0" gradientUnits="userSpaceOnUse" x1="6238.18" y1="4960.64" x2="4323.38" y2="5763.62">
   <stop offset="0" style="stop-opacity:1; stop-color:#F9BD1E"/>
   <stop offset="0.470588" style="stop-opacity:1; stop-color:#F48F22"/>
   <stop offset="1" style="stop-opacity:1; stop-color:#EF6026"/>
  </linearGradient>
  <linearGradient id="id1" gradientUnits="userSpaceOnUse" x1="6186.29" y1="8280.46" x2="4662.69" y2="9721.71">
   <stop offset="0" style="stop-opacity:1; stop-color:#1BBADA"/>
   <stop offset="1" style="stop-opacity:1; stop-color:#1475AA"/>
  </linearGradient>
  <linearGradient id="id2" gradientUnits="userSpaceOnUse" x1="3149.79" y1="6381.3" x2="2285.05" y2="7390.17">
   <stop offset="0" style="stop-opacity:1; stop-color:#27B25F"/>
   <stop offset="1" style="stop-opacity:1; stop-color:#11904F"/>
  </linearGradient>
 </defs>
 <g id="Camada_x0020_1">
  <metadata id="CorelCorpID_0Corel-Layer"/>
  <g id="_2717986828672">
   <g>
    <g>
     <path class="fil0" d="M3652.28 6191.33l3471.87 -25.74c0,-672.58 0,-1345.16 0,-2017.75 -2406.19,-103.95 -3441.78,395.94 -3471.87,2043.49z"/>
     <path class="fil1" d="M2104.81 6191.33l1547.47 0c58.41,1283 -629.66,1712.85 -1724.35,1678.03l0 -1479.85c0,-102.52 77.36,-186.96 176.88,-198.18z"/>
    </g>
    <path class="fil2" d="M3489.49 8630.45l3634.66 6.01c-61.71,776.79 -716.67,1393.3 -1508.61,1393.3l-3651.93 0c-24.76,0 0.65,-1400.19 1525.88,-1399.31zm2095.09 3.46l0 -1337.56c0,-110.16 89.3,-199.46 199.45,-199.46l1340.12 0 0 1539.57"/>
   </g>
   <path class="fil3" d="M10245.76 8361.35c-221.46,53.18 -382.83,85.41 -484.12,96.15 -101.29,11.28 -208.87,16.66 -321.62,16.66 -465.8,0 -804.58,-115.5 -1015.73,-347.02 -211.73,-231.53 -317.59,-524.84 -317.59,-879.38 0,-232.06 46.34,-440.49 139.05,-625.82 93.27,-185.33 233.48,-330.37 422.32,-435.66 188.27,-105.82 443.49,-158.47 765.67,-158.47 271.81,0 541.35,30.08 808.58,90.25l0 380.33c-224.89,-73.6 -386.25,-117.11 -484.68,-130.53 -98.44,-13.97 -192.29,-20.96 -281.56,-20.96 -290.7,0 -500.14,88.1 -627.75,264.83 -128.2,176.2 -192.29,390 -192.29,640.86 0,273.97 75.55,491.53 227.18,653.22 151.08,161.7 364.53,242.81 639.22,242.81 58.94,0 128.75,-8.06 208.3,-23.64l0 -766.02 515.02 0 0 1002.39zm1899.83 -3.23c-234.61,64.47 -456.64,96.7 -666.67,96.7 -198.56,0 -373.09,-34.92 -522.45,-104.76 -149.36,-69.29 -264.38,-178.34 -345.07,-326.6 -80.68,-148.27 -120.75,-309.95 -120.75,-483.47 0,-161.69 34.33,-311.03 102.44,-447.47 68.66,-136.98 167.67,-244.96 298.15,-323.93 131.03,-78.97 291.84,-118.71 482.97,-118.71 234.05,0 421.19,70.37 561.38,210.57 140.2,140.75 210,402.35 210,785.37l-1133.04 0c10.87,116.03 38.9,207.88 84.12,275.03 44.63,66.61 105.29,119.79 181.98,159.01 76.67,39.22 179.11,59.09 307.86,59.09 165.39,0 351.94,-36.52 559.08,-109.58l0 328.75zm-1139.92 -976.6l652.37 0c0,-158.47 -28.04,-271.27 -83.54,-339.5 -56.07,-68.22 -127.61,-102.06 -216.31,-102.06 -95.57,0 -174.54,37.6 -236.35,112.27 -61.8,75.2 -100.7,184.79 -116.17,329.29zm1440.91 979.83l0 -341.65c245.51,96.68 455.52,145.04 629.48,145.04 92.71,0 166.53,-18.26 221.47,-55.33 55.51,-36.53 82.97,-83.27 82.97,-139.67 0,-49.42 -20.6,-90.78 -61.81,-124.09 -41.77,-32.77 -104.72,-65 -189.41,-96.16l-167.67 -62.85c-173.39,-65 -301.57,-136.98 -383.97,-215.41 -82.98,-77.9 -124.19,-178.88 -124.19,-304.05 0,-149.87 62.37,-273.42 187.12,-371.19 124.77,-97.23 315.33,-146.11 571.69,-146.11 149.92,0 328.47,20.4 535.62,61.24l0 328.74c-199.14,-66.6 -363.95,-99.9 -494.98,-99.9 -102.44,0 -179.69,16.64 -231.2,49.42 -51.51,33.3 -77.25,75.74 -77.25,128.38 0,40.83 16.6,76.81 50.35,108.52 32.05,31.69 91.56,62.31 177.4,92.92l144.2 51.58c237.49,85.41 393.14,167.6 466.98,247.1 72.67,80.58 108.71,177.27 108.71,289.55 0,145.58 -66.94,273.42 -200.29,383 -133.33,109.6 -327.32,164.39 -581.98,164.39 -216.31,0 -437.77,-31.16 -663.24,-93.47zm2771.4 45.12c-118.46,32.23 -212.3,48.35 -280.41,48.35 -162.51,0 -288.41,-21.49 -377.68,-64.47 -89.84,-42.97 -156.8,-101.52 -202.01,-175.66 -44.63,-73.6 -66.95,-182.63 -66.95,-326.6l0 -909.46 0 -290.08 0 -290.08 282.77 -30.5 215.09 320.58 394.86 0 0 290.08 -394.86 0 0 846.61c0,124.09 23.47,208.43 70.39,251.93 46.92,43.52 115.59,65 206,65 42.92,0 93.85,-5.37 152.8,-16.11l0 280.41zm1174.81 -177.27c-71.53,65 -133.34,111.73 -185.99,140.2 -52.65,28.48 -107.57,49.96 -164.81,63.93 -56.64,14.5 -117.3,21.49 -180.82,21.49 -164.23,0 -296.43,-47.81 -395.43,-143.97 -99,-95.62 -148.21,-213.26 -148.21,-352.92 0,-169.76 73.82,-311.58 222.03,-424.92 148.21,-113.89 387.99,-170.83 720.47,-170.83l132.18 0 0 -156.85c0,-105.84 -31.47,-177.28 -93.84,-213.81 -62.39,-36.53 -141.92,-54.79 -238.06,-54.79 -189.99,0 -383.41,51.03 -581.41,153.63l0 -320.69c224.9,-80.05 448.65,-119.79 671.25,-119.79 136.2,0 258.1,17.19 365.1,52.11 107.59,34.37 193.42,88.09 257.51,160.61 64.67,73.05 96.71,181.57 96.71,326.07l0 763.87c0,92.94 16.03,149.89 47.5,170.84 31.48,20.94 62.37,31.68 93.27,31.68 18.33,0 41.21,-2.14 68.67,-5.9l6.88 261.61c-105.3,29.55 -198.59,44.05 -280.42,44.05 -91.56,0 -170.52,-14.5 -236.91,-43.52 -66.95,-29 -117.88,-89.71 -153.92,-182.1l-21.75 0zm-0.58 -249.25l0 -350.25 -117.31 0c-161.37,0 -282.11,26.86 -361.08,81.12 -79.55,53.72 -119.03,120.86 -119.03,201.98 0,66.07 24.03,119.79 72.11,162.23 48.07,42.43 104.14,63.92 168.8,63.92 58.38,0 116.74,-13.43 176.83,-40.29 59.51,-26.31 119.6,-66.07 179.68,-118.71zm-786.27 -1581.48c9.16,-146.65 44.64,-253.01 106.43,-319.63 61.82,-66.06 135.07,-99.37 218.61,-99.37 57.22,0 124.76,11.28 202.58,33.84l107.58 32.23 103.58 35.46c119.89,41.03 302.15,8.57 399.91,-101.53l39.01 0c0,121.4 -30.34,221.86 -90.43,300.82 -60.64,78.97 -140.76,118.18 -241.49,118.18 -62.37,0 -128.75,-11.82 -199.14,-35.45l-119.02 -38.68 -85.27 -29.01c-23.45,-6.44 -46.35,-9.67 -67.53,-9.67 -25.17,0 -48.06,6.99 -67.52,20.41 -19.46,13.97 -32.61,44.59 -39.48,92.4l-267.82 0zm2521.32 2056.35c-199.15,0 -369.67,-36.53 -512.17,-109.05 -142.49,-73.06 -251.21,-180.5 -326.17,-321.78 -74.99,-141.27 -112.16,-298.67 -112.16,-471.64 0,-171.91 36.61,-328.23 110.43,-469.5 73.82,-140.75 182.55,-248.18 325.03,-322.31 143.06,-73.6 314.74,-110.66 515.04,-110.66 200.86,0 372.53,37.06 515.03,110.66 142.48,74.13 250.63,181.56 325.02,322.31 74.4,141.27 111.6,297.59 111.6,469.5 0,172.97 -37.2,330.37 -112.16,471.64 -74.97,141.28 -183.71,248.72 -326.19,321.78 -142.48,72.52 -313.59,109.05 -513.3,109.05zm0 -290.08c140.19,0 246.06,-58.02 316.44,-174.05 70.98,-116.03 106.45,-262.15 106.45,-438.34 0,-175.13 -35.47,-321.24 -106.45,-437.81 -70.38,-116.57 -176.25,-174.58 -316.44,-174.58 -139.64,0 -244.93,58.01 -315.32,174.58 -70.95,116.57 -106.44,262.68 -106.44,437.81 0,176.19 35.49,322.31 106.44,438.34 70.39,116.03 175.68,174.05 315.32,174.05zm2193.41 232.06l0 -399.66c193.43,75.74 338.2,120.86 433.76,135.9 96.15,14.5 184.27,22.02 264.38,22.02 144.79,0 252.94,-30.61 324.47,-91.31 71.53,-61.24 107.02,-134.3 107.02,-219.18 0,-65 -20.04,-124.09 -60.09,-176.74 -39.49,-51.56 -137.34,-118.17 -292.42,-200.36l-167.67 -86.48c-238.62,-125.17 -400.01,-240.66 -484.7,-346.5 -85.27,-106.35 -128.19,-228.84 -128.19,-368.5 0,-175.66 71.54,-325.53 214.03,-450.7 142.49,-125.16 347.35,-187.48 615.16,-187.48 199.16,0 424.62,26.87 674.69,80.58l0 373.89c-255.79,-90.26 -459.52,-135.38 -610.01,-135.38 -124.75,0 -219.18,25.25 -284.43,76.28 -65.22,51.03 -97.84,112.28 -97.84,183.71 0,54.81 20.02,105.84 59.52,153.1 38.32,47.28 135.04,111.74 290.12,193.93l179.12 92.94c273.53,143.96 448.07,269.13 523.61,374.95 74.39,106.89 111.59,226.7 111.59,359.91 0,191.24 -77.26,354 -232.34,489.37 -155.07,135.38 -401.72,203.07 -739.92,203.07 -200.28,0 -433.76,-25.79 -699.86,-77.36zm2718.74 58.02c-199.14,0 -369.68,-36.53 -512.17,-109.05 -142.5,-73.06 -251.21,-180.5 -326.18,-321.78 -74.97,-141.27 -112.16,-298.67 -112.16,-471.64 0,-171.91 36.62,-328.23 110.44,-469.5 73.83,-140.75 182.55,-248.18 325.04,-322.31 143.06,-73.6 314.74,-110.66 515.03,-110.66 200.85,0 372.53,37.06 515.02,110.66 142.5,74.13 250.65,181.56 325.04,322.31 74.4,141.27 111.58,297.59 111.58,469.5 0,172.97 -37.18,330.37 -112.16,471.64 -74.96,141.28 -183.69,248.72 -326.18,321.78 -142.48,72.52 -313.59,109.05 -513.3,109.05zm0 -290.08c140.2,0 246.07,-58.02 316.45,-174.05 70.96,-116.03 106.44,-262.15 106.44,-438.34 0,-175.13 -35.48,-321.24 -106.44,-437.81 -70.38,-116.57 -176.25,-174.58 -316.45,-174.58 -139.63,0 -244.92,58.01 -315.31,174.58 -70.97,116.57 -106.45,262.68 -106.45,437.81 0,176.19 35.48,322.31 106.45,438.34 70.39,116.03 175.68,174.05 315.31,174.05zm1234.32 251.4l0 -2485.02 497.86 0 0 2485.02 -497.86 0zm1850.62 -186.94c-71.52,65 -133.32,111.73 -185.97,140.2 -52.65,28.48 -107.58,49.96 -164.81,63.93 -56.66,14.5 -117.3,21.49 -180.82,21.49 -164.25,0 -296.43,-47.81 -395.44,-143.97 -98.99,-95.62 -148.22,-213.26 -148.22,-352.92 0,-169.76 73.83,-311.58 222.04,-424.92 148.21,-113.89 388,-170.83 720.47,-170.83l132.19 0 0 -156.85c0,-105.84 -31.49,-177.28 -93.86,-213.81 -62.37,-36.53 -141.91,-54.79 -238.05,-54.79 -189.99,0 -383.4,51.03 -581.4,153.63l0 -320.69c224.89,-80.05 448.65,-119.79 671.24,-119.79 136.21,0 258.09,17.19 365.1,52.11 107.59,34.37 193.43,88.09 257.52,160.61 64.66,73.05 96.71,181.57 96.71,326.07l0 763.87c0,92.94 16.01,149.89 47.49,170.84 31.48,20.94 62.38,31.68 93.28,31.68 18.32,0 41.21,-2.14 68.67,-5.9l6.87 261.61c-105.3,29.55 -198.58,44.05 -280.41,44.05 -91.56,0 -170.53,-14.5 -236.91,-43.52 -66.95,-29 -117.89,-89.71 -153.94,-182.1l-21.75 0zm-0.56 -249.25l0 -350.25 -117.31 0c-161.38,0 -282.11,26.86 -361.1,81.12 -79.54,53.72 -119.01,120.86 -119.01,201.98 0,66.07 24.02,119.79 72.09,162.23 48.08,42.43 104.16,63.92 168.82,63.92 58.36,0 116.74,-13.43 176.81,-40.29 59.52,-26.31 119.62,-66.07 179.7,-118.71zm945.9 436.19l0 -1727.59 497.87 0 0 325.54c59.51,-111.2 140.19,-199.3 243.19,-265.37 103.02,-66.07 218.04,-98.84 344.51,-98.84 29.74,0 60.65,2.14 92.11,6.43l0 419.02c-69.23,-23.64 -135.04,-35.47 -196.27,-35.47 -98.42,0 -188.26,23.11 -268.96,69.84 -80.1,46.21 -151.64,116.58 -214.58,210.58l0 1095.86 -497.87 0z"/>
  </g>
 </g>
</svg>
