<?xml version="1.0" encoding="UTF-8"?>
<!DOCTYPE svg PUBLIC "-//W3C//DTD SVG 1.1//EN" "http://www.w3.org/Graphics/SVG/1.1/DTD/svg11.dtd">
<!-- Creator: CorelDRAW 2020 (64 Bit) -->
<svg xmlns="http://www.w3.org/2000/svg" xml:space="preserve" width="150mm" height="150mm" version="1.1" style="shape-rendering:geometricPrecision; text-rendering:geometricPrecision; image-rendering:optimizeQuality; fill-rule:evenodd; clip-rule:evenodd"
viewBox="0 0 15000 15000"
 xmlns:xlink="http://www.w3.org/1999/xlink"
 xmlns:xodm="http://www.corel.com/coreldraw/odm/2003">
 <defs>
  <style type="text/css">
   <![CDATA[
    .fil1 {fill:url(#id0)}
    .fil2 {fill:url(#id1)}
    .fil0 {fill:url(#id2)}
   ]]>
  </style>
  <linearGradient id="id0" gradientUnits="userSpaceOnUse" x1="4212.6" y1="5833.04" x2="2147.32" y2="8242.53">
   <stop offset="0" style="stop-opacity:1; stop-color:#27B25F"/>
   <stop offset="1" style="stop-opacity:1; stop-color:#11904F"/>
  </linearGradient>
  <linearGradient id="id1" gradientUnits="userSpaceOnUse" x1="11464.65" y1="10368.8" x2="7825.83" y2="13810.94">
   <stop offset="0" style="stop-opacity:1; stop-color:#1BBADA"/>
   <stop offset="1" style="stop-opacity:1; stop-color:#1475AA"/>
  </linearGradient>
  <linearGradient id="id2" gradientUnits="userSpaceOnUse" x1="11588.59" y1="2440.09" x2="7015.47" y2="4357.84">
   <stop offset="0" style="stop-opacity:1; stop-color:#F9BD1E"/>
   <stop offset="0.470588" style="stop-opacity:1; stop-color:#F48F22"/>
   <stop offset="1" style="stop-opacity:1; stop-color:#EF6026"/>
  </linearGradient>
 </defs>
 <g id="Camada_x0020_1">
  <metadata id="CorelCorpID_0Corel-Layer"/>
  <g id="_2717988535216">
   <g>
    <path class="fil0" d="M5412.67 5379.34l8291.85 -61.47c0,-1606.33 0,-3212.65 0,-4818.98 -5746.69,-248.26 -8219.98,945.61 -8291.85,4880.45z"/>
    <path class="fil1" d="M1716.86 5379.34l3695.81 0c139.52,3064.18 -1503.82,4090.8 -4118.25,4007.62l0 -3534.31c0,-244.85 184.75,-446.52 422.44,-473.31z"/>
   </g>
   <path class="fil2" d="M5023.88 11204.67l8680.64 14.37c-147.37,1855.19 -1711.6,3327.6 -3603,3327.6l-8721.89 0c-59.12,0 1.55,-3344.07 3644.25,-3341.97zm5003.69 8.28l0 -3194.49c0,-263.09 213.28,-476.37 476.36,-476.37l3200.59 0 0 3676.95"/>
  </g>
 </g>
</svg>
